<?xml version="1.0" encoding="utf-8"?><!-- Uploaded to: SVG Repo, www.svgrepo.com, Generator: SVG Repo Mixer Tools -->
<svg fill="#000000" width="800px" height="800px" viewBox="0 0 24 24" xmlns="http://www.w3.org/2000/svg"><path d="M1.293,11.293l4-4A1,1,0,1,1,6.707,8.707L3.414,12l3.293,3.293a1,1,0,1,1-1.414,1.414l-4-4A1,1,0,0,1,1.293,11.293Zm17.414-4a1,1,0,1,0-1.414,1.414L20.586,12l-3.293,3.293a1,1,0,1,0,1.414,1.414l4-4a1,1,0,0,0,0-1.414ZM13.039,4.726l-4,14a1,1,0,0,0,.686,1.236A1.053,1.053,0,0,0,10,20a1,1,0,0,0,.961-.726l4-14a1,1,0,1,0-1.922-.548Z"/></svg>