<svg fill="#000000" height="175px" width="175px" version="1.1" id="Capa_1" xmlns="http://www.w3.org/2000/svg" xmlns:xlink="http://www.w3.org/1999/xlink" viewBox="0 0 487.3 487.3" xml:space="preserve"><g id="SVGRepo_bgCarrier" stroke-width="0"></g><g id="SVGRepo_tracerCarrier" stroke-linecap="round" stroke-linejoin="round"></g><g id="SVGRepo_iconCarrier"> <g> <g> <path d="M487.2,69.7c0,12.9-10.5,23.4-23.4,23.4h-322c-12.9,0-23.4-10.5-23.4-23.4s10.5-23.4,23.4-23.4h322.1 C476.8,46.4,487.2,56.8,487.2,69.7z M463.9,162.3H141.8c-12.9,0-23.4,10.5-23.4,23.4s10.5,23.4,23.4,23.4h322.1 c12.9,0,23.4-10.5,23.4-23.4C487.2,172.8,476.8,162.3,463.9,162.3z M463.9,278.3H141.8c-12.9,0-23.4,10.5-23.4,23.4 s10.5,23.4,23.4,23.4h322.1c12.9,0,23.4-10.5,23.4-23.4C487.2,288.8,476.8,278.3,463.9,278.3z M463.9,394.3H141.8 c-12.9,0-23.4,10.5-23.4,23.4s10.5,23.4,23.4,23.4h322.1c12.9,0,23.4-10.5,23.4-23.4C487.2,404.8,476.8,394.3,463.9,394.3z M38.9,30.8C17.4,30.8,0,48.2,0,69.7s17.4,39,38.9,39s38.9-17.5,38.9-39S60.4,30.8,38.9,30.8z M38.9,146.8 C17.4,146.8,0,164.2,0,185.7s17.4,38.9,38.9,38.9s38.9-17.4,38.9-38.9S60.4,146.8,38.9,146.8z M38.9,262.8 C17.4,262.8,0,280.2,0,301.7s17.4,38.9,38.9,38.9s38.9-17.4,38.9-38.9S60.4,262.8,38.9,262.8z M38.9,378.7 C17.4,378.7,0,396.1,0,417.6s17.4,38.9,38.9,38.9s38.9-17.4,38.9-38.9C77.8,396.2,60.4,378.7,38.9,378.7z"></path> </g> </g> </g></svg>